<svg xmlns="http://www.w3.org/2000/svg" xmlns:xlink="http://www.w3.org/1999/xlink" width="500" zoomAndPan="magnify" viewBox="0 0 375 374.999991" height="500" preserveAspectRatio="xMidYMid meet" version="1.0"><defs><g/></defs><g fill="#171717" fill-opacity="1"><g transform="translate(3.815797, 216.562486)"><g><path d="M 28.46875 0 C 22.695312 0 18.269531 -1.484375 15.1875 -4.453125 C 12.101562 -7.429688 10.5625 -11.6875 10.5625 -17.21875 L 10.5625 -34.703125 L 1.734375 -34.703125 L 1.734375 -45.4375 L 5.796875 -45.4375 C 8.273438 -45.4375 9.960938 -45.835938 10.859375 -46.640625 C 11.753906 -47.453125 12.375 -49.015625 12.71875 -51.328125 L 13.5 -57.203125 L 23.71875 -57.203125 L 23.71875 -45.4375 L 36.171875 -45.4375 L 36.171875 -34.703125 L 23.71875 -34.703125 L 23.71875 -19.21875 C 23.71875 -14.019531 26.253906 -11.421875 31.328125 -11.421875 L 36.78125 -11.421875 L 36.78125 0 Z M 28.46875 0 "/></g></g></g><g fill="#171717" fill-opacity="1"><g transform="translate(36.614729, 216.562486)"><g><path d="M 6.578125 0 L 6.578125 -64.046875 L 19.734375 -64.046875 L 19.734375 -41.96875 C 21.460938 -43.53125 23.476562 -44.703125 25.78125 -45.484375 C 28.09375 -46.265625 30.519531 -46.65625 33.0625 -46.65625 C 38.945312 -46.65625 43.5625 -44.835938 46.90625 -41.203125 C 50.25 -37.566406 51.921875 -32.570312 51.921875 -26.21875 L 51.921875 0 L 38.765625 0 L 38.765625 -24.921875 C 38.765625 -28.265625 37.972656 -30.84375 36.390625 -32.65625 C 34.804688 -34.476562 32.597656 -35.390625 29.765625 -35.390625 C 26.765625 -35.390625 24.34375 -34.363281 22.5 -32.3125 C 20.65625 -30.269531 19.734375 -27.460938 19.734375 -23.890625 L 19.734375 0 Z M 6.578125 0 "/></g></g></g><g fill="#171717" fill-opacity="1"><g transform="translate(86.6357, 216.562486)"><g><path d="M 6.578125 0 L 6.578125 -45.4375 L 19.734375 -45.4375 L 19.734375 0 Z M 4.671875 -60.15625 C 4.671875 -62.570312 5.460938 -64.546875 7.046875 -66.078125 C 8.640625 -67.609375 10.675781 -68.375 13.15625 -68.375 C 15.695312 -68.375 17.742188 -67.609375 19.296875 -66.078125 C 20.859375 -64.546875 21.640625 -62.570312 21.640625 -60.15625 C 21.640625 -57.726562 20.859375 -55.75 19.296875 -54.21875 C 17.742188 -52.6875 15.695312 -51.921875 13.15625 -51.921875 C 10.675781 -51.921875 8.640625 -52.6875 7.046875 -54.21875 C 5.460938 -55.75 4.671875 -57.726562 4.671875 -60.15625 Z M 4.671875 -60.15625 "/></g></g></g><g fill="#171717" fill-opacity="1"><g transform="translate(105.328135, 216.562486)"><g><path d="M 6.578125 0 L 6.578125 -45.4375 L 16.359375 -45.4375 L 17.734375 -40.328125 C 19.585938 -42.460938 21.828125 -44.050781 24.453125 -45.09375 C 27.078125 -46.132812 29.890625 -46.65625 32.890625 -46.65625 C 38.828125 -46.65625 43.484375 -44.804688 46.859375 -41.109375 C 50.234375 -37.421875 51.921875 -32.429688 51.921875 -26.140625 L 51.921875 0 L 38.765625 0 L 38.765625 -24.75 C 38.765625 -28.09375 37.972656 -30.703125 36.390625 -32.578125 C 34.804688 -34.453125 32.597656 -35.390625 29.765625 -35.390625 C 26.765625 -35.390625 24.34375 -34.351562 22.5 -32.28125 C 20.65625 -30.207031 19.734375 -27.378906 19.734375 -23.796875 L 19.734375 0 Z M 6.578125 0 "/></g></g></g><g fill="#171717" fill-opacity="1"><g transform="translate(155.349112, 216.562486)"><g><path d="M 6.578125 0 L 6.578125 -64.046875 L 19.734375 -64.046875 L 19.734375 -29.078125 L 23.109375 -29.078125 C 25.878906 -29.078125 27.96875 -29.523438 29.375 -30.421875 C 30.789062 -31.316406 31.929688 -33.035156 32.796875 -35.578125 L 36 -45.4375 L 50.203125 -45.4375 L 44.921875 -30.984375 C 43.472656 -26.941406 41.539062 -23.851562 39.125 -21.71875 L 52.1875 0 L 36.875 0 L 26.828125 -17.3125 L 19.734375 -17.3125 L 19.734375 0 Z M 6.578125 0 "/></g></g></g><g fill="#171717" fill-opacity="1"><g transform="translate(202.167987, 216.562486)"><g><path d="M 26.484375 1.21875 C 21.984375 1.21875 18 0.191406 14.53125 -1.859375 C 11.070312 -3.910156 8.347656 -6.738281 6.359375 -10.34375 C 4.367188 -13.945312 3.375 -18.085938 3.375 -22.765625 C 3.375 -27.429688 4.367188 -31.550781 6.359375 -35.125 C 8.347656 -38.707031 11.070312 -41.523438 14.53125 -43.578125 C 18 -45.628906 21.984375 -46.65625 26.484375 -46.65625 C 29.304688 -46.65625 31.929688 -46.234375 34.359375 -45.390625 C 36.785156 -44.554688 38.976562 -43.390625 40.9375 -41.890625 L 40.9375 -64.046875 L 54.09375 -64.046875 L 54.09375 0 L 44.3125 0 L 42.75 -5.1875 C 40.726562 -3.164062 38.332031 -1.59375 35.5625 -0.46875 C 32.800781 0.65625 29.773438 1.21875 26.484375 1.21875 Z M 16.359375 -22.765625 C 16.359375 -19.066406 17.523438 -16.035156 19.859375 -13.671875 C 22.203125 -11.304688 25.21875 -10.125 28.90625 -10.125 C 32.601562 -10.125 35.601562 -11.304688 37.90625 -13.671875 C 40.21875 -16.035156 41.375 -19.066406 41.375 -22.765625 C 41.375 -26.453125 40.21875 -29.476562 37.90625 -31.84375 C 35.601562 -34.207031 32.601562 -35.390625 28.90625 -35.390625 C 25.21875 -35.390625 22.203125 -34.207031 19.859375 -31.84375 C 17.523438 -29.476562 16.359375 -26.453125 16.359375 -22.765625 Z M 16.359375 -22.765625 "/></g></g></g><g fill="#171717" fill-opacity="1"><g transform="translate(255.217964, 216.562486)"><g><path d="M 11.59375 0.953125 C 9.226562 0.953125 7.296875 0.21875 5.796875 -1.25 C 4.296875 -2.726562 3.546875 -4.59375 3.546875 -6.84375 C 3.546875 -9.09375 4.296875 -10.96875 5.796875 -12.46875 C 7.296875 -13.96875 9.226562 -14.71875 11.59375 -14.71875 C 13.957031 -14.71875 15.890625 -13.96875 17.390625 -12.46875 C 18.890625 -10.96875 19.640625 -9.09375 19.640625 -6.84375 C 19.640625 -4.59375 18.890625 -2.726562 17.390625 -1.25 C 15.890625 0.21875 13.957031 0.953125 11.59375 0.953125 Z M 11.59375 0.953125 "/></g></g></g><g fill="#171717" fill-opacity="1"><g transform="translate(270.70832, 216.562486)"><g><path d="M 6.578125 0 L 6.578125 -45.4375 L 19.734375 -45.4375 L 19.734375 0 Z M 4.671875 -60.15625 C 4.671875 -62.570312 5.460938 -64.546875 7.046875 -66.078125 C 8.640625 -67.609375 10.675781 -68.375 13.15625 -68.375 C 15.695312 -68.375 17.742188 -67.609375 19.296875 -66.078125 C 20.859375 -64.546875 21.640625 -62.570312 21.640625 -60.15625 C 21.640625 -57.726562 20.859375 -55.75 19.296875 -54.21875 C 17.742188 -52.6875 15.695312 -51.921875 13.15625 -51.921875 C 10.675781 -51.921875 8.640625 -52.6875 7.046875 -54.21875 C 5.460938 -55.75 4.671875 -57.726562 4.671875 -60.15625 Z M 4.671875 -60.15625 "/></g></g></g><g fill="#171717" fill-opacity="1"><g transform="translate(289.400755, 216.562486)"><g><path d="M 6.578125 0 L 6.578125 -45.4375 L 16.359375 -45.4375 L 17.734375 -40.328125 C 19.585938 -42.460938 21.828125 -44.050781 24.453125 -45.09375 C 27.078125 -46.132812 29.890625 -46.65625 32.890625 -46.65625 C 38.828125 -46.65625 43.484375 -44.804688 46.859375 -41.109375 C 50.234375 -37.421875 51.921875 -32.429688 51.921875 -26.140625 L 51.921875 0 L 38.765625 0 L 38.765625 -24.75 C 38.765625 -28.09375 37.972656 -30.703125 36.390625 -32.578125 C 34.804688 -34.453125 32.597656 -35.390625 29.765625 -35.390625 C 26.765625 -35.390625 24.34375 -34.351562 22.5 -32.28125 C 20.65625 -30.207031 19.734375 -27.378906 19.734375 -23.796875 L 19.734375 0 Z M 6.578125 0 "/></g></g></g></svg>